<?xml version="1.0" encoding="UTF-8"?>
<svg width="125px" height="125px" viewBox="0 0 125 125" version="1.1" xmlns="http://www.w3.org/2000/svg" xmlns:xlink="http://www.w3.org/1999/xlink">
    <title>blueprint</title>
    <g id="Desktop" stroke="none" stroke-width="1" fill="none" fill-rule="evenodd">
        <g id="Offering" transform="translate(-1058.000000, -791.000000)" fill-rule="nonzero">
            <g id="blueprint" transform="translate(1058.000000, 791.000000)">
                <path d="M124.416002,14.5800002 L124.416002,124.416002 L7.2900001,124.416002 C3.28050004,124.416002 0,121.135502 0,117.126002 C0,113.116501 3.28050004,102.546001 7.2900001,102.546001 L14.5800002,14.5800002 L124.416002,14.5800002 Z" id="Path" fill="#51E6FF"></path>
                <polygon id="Path" fill="#0BD1F2" points="69.4980009 14.5800002 124.416002 14.5800002 124.416002 124.416002 69.4980009 124.416002"></polygon>
                <path d="M14.5800002,0 L14.5800002,109.836001 L7.2900001,109.836001 C3.28050004,109.836001 0,113.116501 0,117.126002 L0,10.9350001 C0,4.88373047 4.88373047,0 10.9350001,0 L14.5800002,0 Z" id="Path" fill="#0078D2"></path>
                <path d="M29.4030004,36.9360005 L29.4030004,102.546001 L51.2730007,102.546001 L51.2730007,98.9010013 C51.2730007,94.1625012 54.3342311,90.0799114 58.5630008,88.6219114 L58.5630008,102.546001 L109.593001,102.546001 L109.593001,36.9360005 L29.4030004,36.9360005 Z M102.303001,73.386001 L80.4330011,73.386001 L80.4330011,87.9660012 L87.7230012,87.9660012 L87.7230012,80.6760011 L102.303001,80.6760011 L102.303001,95.2560013 L65.8530009,95.2560013 L65.8530009,80.6760011 L62.2080008,80.6760011 C53.3869109,80.6760011 46.0247702,86.9455909 44.3475006,95.2560013 L36.6930005,95.2560013 L36.6930005,66.0960009 L58.5630008,66.0960009 L58.5630008,51.5160007 L51.2730007,51.5160007 L51.2730007,58.8060008 L36.6930005,58.8060008 L36.6930005,44.2260006 L73.143001,44.2260006 L73.143001,66.0960009 L87.7230012,66.0960009 L87.7230012,58.8060008 L80.4330011,58.8060008 L80.4330011,44.2260006 L102.303001,44.2260006 L102.303001,73.386001 Z" id="Shape" fill="#ECECF1"></path>
                <polygon id="Path" fill="#EFF7FD" points="109.593001 36.9360005 109.593001 102.546001 69.4980009 102.546001 69.4980009 95.2560013 102.303001 95.2560013 102.303001 80.6760011 87.7230012 80.6760011 87.7230012 87.9660012 80.4330011 87.9660012 80.4330011 73.386001 102.303001 73.386001 102.303001 44.2260006 80.4330011 44.2260006 80.4330011 58.8060008 87.7230012 58.8060008 87.7230012 66.0960009 73.143001 66.0960009 73.143001 44.2260006 69.4980009 44.2260006 69.4980009 36.9360005"></polygon>
            </g>
        </g>
    </g>
</svg>