<svg xmlns="http://www.w3.org/2000/svg" width="170" height="123" viewBox="0 0 170 123">
    <g fill="none">
        <path fill="#BDC9D2" d="M74.615 65.694c0-8.503-6.893-15.397-15.397-15.397-2.369 0-4.612.537-6.617 1.492-.37-8.174-7.113-14.689-15.379-14.689-8.504 0-15.397 6.894-15.397 15.397 0 1.363.179 2.683.511 3.94-2.127-1.11-4.544-1.74-7.11-1.74C7.496 54.696 1.1 60.395 0 67.82h74.464c.096-.695.15-1.404.15-2.127z"/>
        <path fill="#0078D2" d="M39.648 49.168L127.848 49.168 127.848 60.928 39.648 60.928z"/>
        <path fill="#0060A8" d="M83.748 49.168L127.848 49.168 127.848 60.928 83.748 60.928z"/>
        <path fill="#0078D2" d="M39.648 84.448L127.848 84.448 127.848 96.208 39.648 96.208z"/>
        <path fill="#0060A8" d="M83.748 84.448L127.848 84.448 127.848 96.208 83.748 96.208z"/>
        <path fill="#2998EB" d="M33.572 22.316L33.572 52.108 133.924 52.108 133.924 22.316z"/>
        <path fill="#0078D2" d="M83.748 22.316L133.924 22.316 133.924 52.108 83.748 52.108z"/>
        <path fill="#51E6FF" d="M45.528 34.468L51.408 34.468 51.408 40.348 45.528 40.348zM57.288 34.468L63.168 34.468 63.168 40.348 57.288 40.348zM69.048 34.468L74.928 34.468 74.928 40.348 69.048 40.348z"/>
        <path fill="#0060A8" d="M92.568 34.468L121.968 34.468 121.968 40.348 92.568 40.348z"/>
        <path fill="#2998EB" d="M33.572 57.988L33.572 87.388 133.924 87.388 133.924 57.988z"/>
        <path fill="#0078D2" d="M83.748 57.988L133.924 57.988 133.924 87.388 83.748 87.388z"/>
        <path fill="#51E6FF" d="M45.528 69.748L51.408 69.748 51.408 75.628 45.528 75.628zM57.288 69.748L63.168 69.748 63.168 75.628 57.288 75.628zM69.048 69.748L74.928 69.748 74.928 75.628 69.048 75.628z"/>
        <path fill="#0060A8" d="M92.568 69.748L121.968 69.748 121.968 75.628 92.568 75.628z"/>
        <path fill="#2998EB" d="M33.572 93.268L33.572 122.668 133.924 122.668 133.924 93.268z"/>
        <path fill="#BDC9D2" d="M98.84 29.741h70.417c.092-.656.143-1.329.143-2.012 0-8.04-6.517-14.558-14.562-14.558-2.238 0-4.358.505-6.256 1.409-.35-7.731-6.725-13.89-14.544-13.89-8.04 0-14.561 6.518-14.561 14.56 0 1.29.17 2.538.483 3.725-2.009-1.047-4.295-1.646-6.722-1.646-7.31 0-13.358 5.39-14.398 12.412z"/>
        <path fill="#0078D2" d="M83.748 93.268L133.924 93.268 133.924 122.668 83.748 122.668z"/>
        <path fill="#51E6FF" d="M45.528 105.028L51.408 105.028 51.408 110.908 45.528 110.908zM57.288 105.028L63.168 105.028 63.168 110.908 57.288 110.908zM69.048 105.028L74.928 105.028 74.928 110.908 69.048 110.908z"/>
        <path fill="#0060A8" d="M92.568 105.028L121.968 105.028 121.968 110.908 92.568 110.908z"/>
    </g>
</svg>
