<?xml version="1.0" encoding="UTF-8"?>
<svg width="84px" height="116px" viewBox="0 0 84 116" version="1.1" xmlns="http://www.w3.org/2000/svg" xmlns:xlink="http://www.w3.org/1999/xlink">
    <title>EnvisioningWorkshop</title>
    <g id="Desktop" stroke="none" stroke-width="1" fill="none" fill-rule="evenodd">
        <g id="Offering" transform="translate(-278.000000, -798.000000)">
            <g id="EnvisioningWorkshop" transform="translate(278.000000, 798.000000)">
                <g id="Group-27">
                    <g id="tip">
                        <path d="M41.6133464,-1.28142546e-14 L37.086538,91.1743403 L63.2518342,86.6621184 L63.2518342,76.6719292 C75.1647854,69.4017874 83.1142915,56.3105728 83.1142915,41.3674446 C83.1142915,18.5207143 64.5337062,-1.28142546e-14 41.6133464,-1.28142546e-14 Z" id="Path" fill="#0BD1F2" fill-rule="nonzero"></path>
                        <path d="M0.112401267,41.3672192 C0.112401267,56.3103474 8.06190738,69.4017874 19.9748586,76.6717038 L19.9748586,86.6618929 L41.6133464,91.1743403 L41.6133464,0 C18.6929866,0 0.112401267,18.5207143 0.112401267,41.3672192 Z" id="Path" fill="#51E6FF" fill-rule="nonzero"></path>
                        <path d="M56.0389295,37.5590175 C53.93248,37.5590175 52.2184173,39.2673317 52.2184173,41.3672192 C52.2184173,43.4671066 53.9322539,45.1756463 56.0389295,45.1756463 C58.1456052,45.1756463 59.8594418,43.4673321 59.8594418,41.3672192 C59.8594418,39.2673317 58.1456052,37.5590175 56.0389295,37.5590175 L56.0389295,37.5590175 Z" id="Path"></path>
                        <path d="M27.1877632,37.5590175 C25.0813137,37.5590175 23.367251,39.2673317 23.367251,41.3672192 C23.367251,43.4671066 25.0810876,45.1756463 27.1877632,45.1756463 C29.2944389,45.1756463 31.0082755,43.4673321 31.0082755,41.3672192 C31.0080494,39.2673317 29.2942127,37.5590175 27.1877632,37.5590175 Z" id="Path"></path>
                        <path d="M56.0389295,30.796095 C50.1913497,30.796095 45.4336325,35.5382562 45.4336325,41.3672192 C45.4336325,42.7096593 45.6885143,43.9930366 46.1485227,45.1756463 L41.6133464,45.1756463 L39.3499422,48.4383056 L41.6133464,51.9383434 L45.4338587,51.9383434 L45.4338587,93.4302258 L52.2186434,93.4302258 L52.2186434,51.9383434 L56.0391557,51.9383434 C61.8867355,51.9383434 66.6444527,47.1961821 66.6444527,41.3669938 C66.6444527,35.5382562 61.8867355,30.796095 56.0389295,30.796095 L56.0389295,30.796095 Z M56.0389295,45.1754209 C53.93248,45.1754209 52.2184173,43.4671066 52.2184173,41.3669938 C52.2184173,39.2673317 53.9322539,37.5587921 56.0389295,37.5587921 C58.1456052,37.5587921 59.8594418,39.2671063 59.8594418,41.3669938 C59.8594418,43.4671066 58.1456052,45.1754209 56.0389295,45.1754209 L56.0389295,45.1754209 Z" id="Shape" fill="#3B2F58" fill-rule="nonzero"></path>
                        <path d="M37.0781701,45.1754209 C37.5379524,43.9930366 37.7930603,42.7094339 37.7930603,41.3669938 C37.7930603,35.5382562 33.0355692,30.7958695 27.1877632,30.7958695 C21.3399573,30.7958695 16.5824662,35.5380308 16.5824662,41.3669938 C16.5824662,47.1959567 21.3399573,51.9383434 27.1877632,51.9383434 L31.0082755,51.9383434 L31.0082755,93.4302258 L37.7930603,93.4302258 L37.7930603,51.9383434 L41.6133464,51.9383434 L41.6133464,45.1754209 L37.0781701,45.1754209 Z M27.1877632,45.1754209 C25.0813137,45.1754209 23.367251,43.4671066 23.367251,41.3669938 C23.367251,39.2673317 25.0810876,37.5587921 27.1877632,37.5587921 C29.2944389,37.5587921 31.0082755,39.2671063 31.0082755,41.3669938 C31.0080494,43.4671066 29.2942127,45.1754209 27.1877632,45.1754209 Z" id="Shape" fill="#0078D2" fill-rule="nonzero"></path>
                        <polygon id="Path" fill="#3B2F58" fill-rule="nonzero" points="41.6133464 86.6621184 37.086538 105.553666 63.2518342 101.041444 63.2518342 86.6621184"></polygon>
                        <polygon id="Path" fill="#8661C4" fill-rule="nonzero" points="41.6133464 86.6621184 19.9748586 86.6621184 19.9748586 101.041444 41.6133464 105.553666"></polygon>
                        <polygon id="Path" fill="#3B2F58" fill-rule="nonzero" points="41.6133464 115.420545 63.2518342 115.420545 63.2518342 101.041444 41.6133464 101.041444 37.086538 108.230882"></polygon>
                        <polygon id="Path" fill="#8661C4" fill-rule="nonzero" points="19.9748586 101.041444 41.6133464 101.041444 41.6133464 115.420545 19.9748586 115.420545"></polygon>
                    </g>
                </g>
                <g id="Group-27">
                    <g id="tip">
                        <path d="M41.6133464,-1.28142546e-14 L37.086538,91.1743403 L63.2518342,86.6621184 L63.2518342,76.6719292 C75.1647854,69.4017874 83.1142915,56.3105728 83.1142915,41.3674446 C83.1142915,18.5207143 64.5337062,-1.28142546e-14 41.6133464,-1.28142546e-14 Z" id="Path" fill="#0BD1F2" fill-rule="nonzero"></path>
                        <path d="M0.112401267,41.3672192 C0.112401267,56.3103474 8.06190738,69.4017874 19.9748586,76.6717038 L19.9748586,86.6618929 L41.6133464,91.1743403 L41.6133464,0 C18.6929866,0 0.112401267,18.5207143 0.112401267,41.3672192 Z" id="Path" fill="#51E6FF" fill-rule="nonzero"></path>
                        <path d="M56.0389295,37.5590175 C53.93248,37.5590175 52.2184173,39.2673317 52.2184173,41.3672192 C52.2184173,43.4671066 53.9322539,45.1756463 56.0389295,45.1756463 C58.1456052,45.1756463 59.8594418,43.4673321 59.8594418,41.3672192 C59.8594418,39.2673317 58.1456052,37.5590175 56.0389295,37.5590175 L56.0389295,37.5590175 Z" id="Path"></path>
                        <path d="M27.1877632,37.5590175 C25.0813137,37.5590175 23.367251,39.2673317 23.367251,41.3672192 C23.367251,43.4671066 25.0810876,45.1756463 27.1877632,45.1756463 C29.2944389,45.1756463 31.0082755,43.4673321 31.0082755,41.3672192 C31.0080494,39.2673317 29.2942127,37.5590175 27.1877632,37.5590175 Z" id="Path"></path>
                        <path d="M56.0389295,30.796095 C50.1913497,30.796095 45.4336325,35.5382562 45.4336325,41.3672192 C45.4336325,42.7096593 45.6885143,43.9930366 46.1485227,45.1756463 L41.6133464,45.1756463 L39.3499422,48.4383056 L41.6133464,51.9383434 L45.4338587,51.9383434 L45.4338587,93.4302258 L52.2186434,93.4302258 L52.2186434,51.9383434 L56.0391557,51.9383434 C61.8867355,51.9383434 66.6444527,47.1961821 66.6444527,41.3669938 C66.6444527,35.5382562 61.8867355,30.796095 56.0389295,30.796095 L56.0389295,30.796095 Z M56.0389295,45.1754209 C53.93248,45.1754209 52.2184173,43.4671066 52.2184173,41.3669938 C52.2184173,39.2673317 53.9322539,37.5587921 56.0389295,37.5587921 C58.1456052,37.5587921 59.8594418,39.2671063 59.8594418,41.3669938 C59.8594418,43.4671066 58.1456052,45.1754209 56.0389295,45.1754209 L56.0389295,45.1754209 Z" id="Shape" fill="#3B2F58" fill-rule="nonzero"></path>
                        <path d="M37.0781701,45.1754209 C37.5379524,43.9930366 37.7930603,42.7094339 37.7930603,41.3669938 C37.7930603,35.5382562 33.0355692,30.7958695 27.1877632,30.7958695 C21.3399573,30.7958695 16.5824662,35.5380308 16.5824662,41.3669938 C16.5824662,47.1959567 21.3399573,51.9383434 27.1877632,51.9383434 L31.0082755,51.9383434 L31.0082755,93.4302258 L37.7930603,93.4302258 L37.7930603,51.9383434 L41.6133464,51.9383434 L41.6133464,45.1754209 L37.0781701,45.1754209 Z M27.1877632,45.1754209 C25.0813137,45.1754209 23.367251,43.4671066 23.367251,41.3669938 C23.367251,39.2673317 25.0810876,37.5587921 27.1877632,37.5587921 C29.2944389,37.5587921 31.0082755,39.2671063 31.0082755,41.3669938 C31.0080494,43.4671066 29.2942127,45.1754209 27.1877632,45.1754209 Z" id="Shape" fill="#0078D2" fill-rule="nonzero"></path>
                        <polygon id="Path" fill="#3B2F58" fill-rule="nonzero" points="41.6133464 86.6621184 37.086538 105.553666 63.2518342 101.041444 63.2518342 86.6621184"></polygon>
                        <polygon id="Path" fill="#8661C4" fill-rule="nonzero" points="41.6133464 86.6621184 19.9748586 86.6621184 19.9748586 101.041444 41.6133464 105.553666"></polygon>
                        <polygon id="Path" fill="#3B2F58" fill-rule="nonzero" points="41.6133464 115.420545 63.2518342 115.420545 63.2518342 101.041444 41.6133464 101.041444 37.086538 108.230882"></polygon>
                        <polygon id="Path" fill="#8661C4" fill-rule="nonzero" points="19.9748586 101.041444 41.6133464 101.041444 41.6133464 115.420545 19.9748586 115.420545"></polygon>
                    </g>
                </g>
            </g>
        </g>
    </g>
</svg>