<svg xmlns="http://www.w3.org/2000/svg" width="126" height="127" viewBox="0 0 126 127">
    <g fill="none">
        <path fill="#1198FE" d="M25.408 0L32.788 0 32.788 20.629 25.408 20.629zM42.347 0L49.727 0 49.727 20.629 42.347 20.629zM59.286 0L66.666 0 66.666 20.63 59.286 20.63z"/>
        <path fill="#0078D2" d="M62.976 0L66.666 0 66.666 20.63 62.976 20.63zM76.225 0L83.605 0 83.605 20.629 76.225 20.629zM93.164 0L100.544 0 100.544 20.629 93.164 20.629z"/>
        <path fill="#1198FE" d="M25.408 105.323L32.788 105.323 32.788 125.952 25.408 125.952zM42.347 105.323L49.727 105.323 49.727 125.952 42.347 125.952zM59.286 105.322L66.666 105.322 66.666 125.952 59.286 125.952z"/>
        <g fill="#0078D2">
            <path d="M0 79.984L3.69 79.984 3.69 100.614 0 100.614zM13.249 79.985L20.629 79.985 20.629 100.614 13.249 100.614zM30.188 79.985L37.568 79.985 37.568 100.614 30.188 100.614zM42.347.07L62.976.07 62.976 7.45 42.347 7.45zM42.347 17.009L62.976 17.009 62.976 24.389 42.347 24.389zM42.347 33.948L62.976 33.948 62.976 41.328 42.347 41.328zM42.347 50.887L62.976 50.887 62.976 58.267 42.347 58.267zM42.347 67.826L62.976 67.826 62.976 75.206 42.347 75.206z" transform="translate(62.976 25.338)"/>
        </g>
        <path fill="#1198FE" d="M0 25.408L20.629 25.408 20.629 32.788 0 32.788zM0 42.347L20.629 42.347 20.629 49.727 0 49.727zM0 59.286L20.629 59.286 20.629 66.666 0 66.666zM0 76.225L20.629 76.225 20.629 83.605 0 83.605zM0 93.164L20.629 93.164 20.629 100.544 0 100.544z"/>
        <path fill="#D8D9E1" d="M16.94 16.94L16.94 109.012 109.012 109.012 109.012 16.94z"/>
        <path fill="#B7C3CB" d="M62.976 16.94L109.012 16.94 109.012 109.012 62.976 109.012z"/>
        <path fill="#8661C4" d="M37.567 37.567L88.385 37.567 88.385 88.385 37.567 88.385z"/>
        <path fill="#3B2F58" d="M62.976 37.567L88.385 37.567 88.385 88.385 62.976 88.385z"/>
        <path fill="#51E6FF" d="M33.877 33.877v58.198h58.198V33.877H33.877zm50.818 50.818H41.257V58.196h9.56v16.94h33.878v9.56zm0-16.94H58.196V50.817h-16.94v-9.56h26.5v16.94h16.94v9.56zm0-16.939h-9.56v-9.56h9.56v9.56z"/>
        <path fill="#0BD1F2" d="M62.976 33.877v7.38h4.78v16.94h16.94v9.559h-21.72v7.38h21.72v9.56h-21.72v7.38h29.1v-58.2h-29.1zm21.72 16.94h-9.56v-9.56h9.56v9.56z"/>
    </g>
</svg>
