<?xml version="1.0" encoding="UTF-8"?>
<svg width="163px" height="122px" viewBox="0 0 163 122" version="1.1" xmlns="http://www.w3.org/2000/svg" xmlns:xlink="http://www.w3.org/1999/xlink">
    <title>Group 36</title>
    <g id="Desktop" stroke="none" stroke-width="1" fill="none" fill-rule="evenodd">
        <g id="Offering" transform="translate(-1020.000000, -1336.000000)">
            <g id="Group-36" transform="translate(1020.000000, 1336.000000)">
                <g id="Group-33" transform="translate(79.880962, 8.218105)">
                    <path d="M3.23860325,110.316114 C1.45641842,110.316114 -6.41264803e-13,108.859696 -6.41264803e-13,107.078378 L-6.41264803e-13,3.23687045 C-6.41264803e-13,1.45641842 1.45641842,1.53903553e-13 3.23860325,1.53903553e-13 L77.7221459,1.53903553e-13 C79.5008652,1.53903553e-13 80.95815,1.45641842 80.95815,3.23687045 L80.95815,107.078378 C80.95815,108.859696 79.5008652,110.316114 77.7221459,110.316114 L3.23860325,110.316114 Z" id="Fill-35" fill="#000000"></path>
                    <path d="M4.51957567,110.316114 C2.73825724,110.316114 1.28183882,108.859696 1.28183882,107.078378 L1.28183882,3.23687045 C1.28183882,1.45641842 2.73825724,1.53903553e-13 4.51957567,1.53903553e-13 L79.0039848,1.53903553e-13 C80.782704,1.53903553e-13 82.2399888,1.45641842 82.2399888,3.23687045 L82.2399888,107.078378 C82.2399888,108.859696 80.782704,110.316114 79.0039848,110.316114 L4.51957567,110.316114 Z" id="Fill-36" fill="#313131"></path>
                    <polygon id="Fill-37" fill="#0078D2" points="10.2845147 101.510285 73.2354068 101.510285 73.2354068 8.80375045 10.2845147 8.80375045"></polygon>
                    <polygon id="Fill-48" fill="#FFFFFF" points="15.5886156 92.2346061 67.9321724 92.2346061 67.9321724 26.0520419 15.5886156 26.0520419"></polygon>
                    <path d="M37.7947078,18.7167528 C37.8302302,16.5429552 39.5985527,14.7928272 41.7801479,14.7928272 C43.9608767,14.7928272 45.7309319,16.5429552 45.7664544,18.7167528 L37.7947078,18.7167528 Z M58.3769065,18.7167528 L48.901956,18.7167528 C48.8690328,14.811888 45.6936767,11.6555927 41.7801479,11.6555927 C37.8692182,11.6555927 34.6903966,14.811888 34.656607,18.7167528 L24.842894,18.7167528 C23.9539676,18.7167528 23.2331228,19.4375976 23.2331228,20.3265241 L23.2331228,25.9685209 C23.2331228,26.8574474 23.9539676,27.5782922 24.842894,27.5782922 L58.3769065,27.5782922 C59.2649665,27.5782922 59.9858114,26.8574474 59.9858114,25.9685209 L59.9858114,20.3265241 C59.9858114,19.4375976 59.2649665,18.7167528 58.3769065,18.7167528 L58.3769065,18.7167528 Z" id="Fill-49" fill="#3B2E58"></path>
                    <path d="M58.4876325,55.4841702 L25.0350616,55.4841702 C24.0283048,55.4841702 23.2138887,54.6697542 23.2138887,53.6647301 C23.2138887,52.6605725 24.0283048,51.8461565 25.0350616,51.8461565 L58.4876325,51.8461565 C59.4926565,51.8461565 60.3070725,52.6605725 60.3070725,53.6647301 C60.3070725,54.6697542 59.4926565,55.4841702 58.4876325,55.4841702" id="Fill-50" fill="#51E5FF"></path>
                    <path d="M41.1875303,44.1942849 L25.0326356,44.1942849 C24.0276116,44.1942849 23.214062,43.3798689 23.214062,42.3748449 C23.214062,41.3706872 24.0276116,40.5562712 25.0326356,40.5562712 L41.1875303,40.5562712 C42.1916879,40.5562712 43.0069703,41.3706872 43.0069703,42.3748449 C43.0069703,43.3798689 42.1916879,44.1942849 41.1875303,44.1942849" id="Fill-51" fill="#51E5FF"></path>
                    <path d="M58.4876325,62.0172595 L25.0350616,62.0172595 C24.0283048,62.0172595 23.2138887,61.2028435 23.2138887,60.1978194 C23.2138887,59.1936618 24.0283048,58.3792458 25.0350616,58.3792458 L58.4876325,58.3792458 C59.4926565,58.3792458 60.3070725,59.1936618 60.3070725,60.1978194 C60.3070725,61.2028435 59.4926565,62.0172595 58.4876325,62.0172595" id="Fill-52" fill="#51E5FF"></path>
                    <path d="M58.4876325,68.550782 L25.0350616,68.550782 C24.0283048,68.550782 23.2138887,67.7372324 23.2138887,66.7322083 C23.2138887,65.7271843 24.0283048,64.9127683 25.0350616,64.9127683 L58.4876325,64.9127683 C59.4926565,64.9127683 60.3070725,65.7271843 60.3070725,66.7322083 C60.3070725,67.7372324 59.4926565,68.550782 58.4876325,68.550782" id="Fill-53" fill="#51E5FF"></path>
                    <path d="M58.4876325,75.0835247 L25.0350616,75.0835247 C24.0283048,75.0835247 23.2138887,74.2691087 23.2138887,73.2640847 C23.2138887,72.2599271 24.0283048,71.445511 25.0350616,71.445511 L58.4876325,71.445511 C59.4926565,71.445511 60.3070725,72.2599271 60.3070725,73.2640847 C60.3070725,74.2691087 59.4926565,75.0835247 58.4876325,75.0835247" id="Fill-54" fill="#51E5FF"></path>
                    <path d="M58.4876325,81.6161808 L25.0350616,81.6161808 C24.0283048,81.6161808 23.2138887,80.8017648 23.2138887,79.7967408 C23.2138887,78.7925832 24.0283048,77.9781671 25.0350616,77.9781671 L58.4876325,77.9781671 C59.4926565,77.9781671 60.3070725,78.7925832 60.3070725,79.7967408 C60.3070725,80.8017648 59.4926565,81.6161808 58.4876325,81.6161808" id="Fill-55" fill="#51E5FF"></path>
                </g>
                <g id="Group-35" transform="translate(39.546096, 61.020167) rotate(12.000000) translate(-39.546096, -61.020167) translate(11.546096, 5.020167)">
                    <path d="M56.0049216,12.5609674 C50.5678284,-3.11472111 29.4435236,0.318562158 29.4435236,0.318562158 L29.4338199,0.319775118 C28.0013142,0.352525038 25.8628657,0.608459597 23.275622,1.19553224 L23.2380203,1.20099056 L23.0287847,1.25193488 C22.9893635,1.26103208 22.9511552,1.27012928 22.9111275,1.27922648 C22.9111275,1.27922648 22.9123405,1.27922648 22.9123405,1.28043944 L22.8389564,1.29742088 L22.8389564,1.29620792 C22.7134151,1.32531896 22.593332,1.35503648 22.4702166,1.38657344 L22.1960876,1.45207328 L22.1960876,1.45328624 C17.8342835,2.54616319 15.1051235,3.90467839 14.9638136,4.43352895 C14.7024208,6.26813094 13.6265252,6.8667267 13.0352072,7.0062171 C12.4420698,7.14631398 10.9658975,7.07717526 9.79417813,6.52042662 C7.86132637,5.68833607 4.93991222,5.52943831 4.93991222,5.52943831 L3.12168518,5.95943262 L1.76377647,6.27965406 L1.55939271,6.32938542 C0.47500647,6.58410702 -0.201825208,7.68122934 0.0541093514,8.76318966 L2.52126999,19.1928262 C2.77720454,20.276606 3.8731139,20.9522247 4.95689366,20.6962901 L5.16309686,20.6477717 L5.1649163,20.6489847 L8.57272741,19.8423663 C8.57272741,19.8423663 11.0277584,18.4280549 12.2564869,16.9785677 C13.0582535,15.9560424 14.3470235,15.2361507 14.938948,15.0972668 C15.3143591,15.0081142 15.9469177,15.00023 16.6292077,15.3950484 C16.637092,15.4411409 16.637092,15.485414 16.6467956,15.5309 L16.893633,16.574652 C17.150174,17.6584318 18.2466899,18.3340505 19.3274372,18.078116 L22.5545173,17.3145576 L31.5813656,56.0140463 L38.8203109,54.3092311 L29.7934626,15.6030711 L32.9902186,14.846184 C34.0727854,14.5914624 34.7496171,13.4961596 34.4918631,12.4117733 L34.3232617,11.6900621 C43.7321924,4.79317159 54.8532161,12.1206629 56.0049216,12.5609674" id="Fill-15" fill="#3B2E58"></path>
                    <path d="M54.8377514,106.707047 C55.0936859,107.790827 54.4180672,108.88613 53.3342874,109.140852 L42.0513336,111.811789 C40.9687668,112.06833 39.8728574,111.390892 39.6169228,110.308326 L22.5138831,35.0340838 C22.2585551,33.951517 22.9353867,32.8543946 24.01856,32.5984601 L35.3015139,29.9305546 C36.3852937,29.6728006 37.481203,30.3502387 37.7371376,31.433412 L54.8377514,106.707047 Z" id="Fill-17" fill="#8661C5"></path>
                    <path d="M25.9758529,32.136201 L24.018742,32.5989453 C22.9349622,32.8554863 22.2593435,33.9507892 22.5140651,35.033356 L39.6171048,110.307598 C39.8718264,111.391377 40.9689487,112.068816 42.0515155,111.811062 L44.006807,111.348317 L25.9758529,32.136201 Z" id="Fill-19" fill="#3B2E58"></path>
                    <path d="M5.93296257,18.3852981 L3.46762138,7.95748098 C3.21289978,6.88158546 3.87942129,5.79659274 4.94864553,5.52974155 C4.94743257,5.52974155 4.93954833,5.52852859 4.93954833,5.52852859 L3.1213213,5.95973586 L1.76401906,6.2799573 L1.55902882,6.32968866 C0.475249062,6.58441026 -0.201582616,7.68153258 0.0543519434,8.76409938 L2.5209061,19.1919165 C2.77744714,20.2756962 3.87335649,20.9531344 4.95652977,20.6953804 L5.16273297,20.646862 L5.16394593,20.6480749 L8.57297,19.8414566 L8.57478944,19.8414566 L8.57478944,19.8402436 L8.36858624,19.889975 C7.28480649,20.146516 6.18950361,19.4690778 5.93296257,18.3852981" id="Fill-21" fill="#3B2E58"></path>
                </g>
            </g>
        </g>
    </g>
</svg>