<svg xmlns="http://www.w3.org/2000/svg" width="140" height="134" viewBox="0 0 140 134">
    <g fill="none" fill-rule="evenodd">
        <path fill="#51E5FF" d="M32.805 116.123c6.703-6.163 11.052-13.44 12.389-19.76l-6.33-6.89c-6.392.819-13.976 4.554-20.669 10.73-9.207 8.48-13.975 19.02-12.621 26.334l.019-.018c7.158 1.965 18.022-1.915 27.212-10.396"/>
        <path fill="#9FFAFF" d="M36.391 110.913c5.89-5.446 9.726-11.846 10.919-17.413l-5.559-6.06c-5.627.725-12.307 4.037-18.211 9.471-8.104 7.47-12.314 16.746-11.128 23.182l.019-.017c6.293 1.72 15.862-1.704 23.96-9.163"/>
        <path fill="#8661C5" d="M76.701 119.709c-5.733 5.458-11.367 10.474-17.08 14.079 2.155-2.75 4.102-5.82 5.715-9.175 5.794-11.962 1.124-21.667-3.532-29.567l25.57-22.316c7.67 13.763 2.945 34.012-10.673 46.979"/>
        <path fill="#9575DB" d="M14.89 54.932C9.16 60.388 3.874 65.774 0 71.293c2.855-2.017 6.008-3.8 9.438-5.248 12.23-5.199 21.69-.055 29.356 4.974L62.32 46.59c-13.364-8.342-33.821-4.615-47.43 8.343"/>
        <path fill="#D8D9E1" d="M63.615 31.124c-18.236 17.362-29.908 37.644-33.28 55.17l17.868 18.767c17.664-2.55 38.477-13.216 56.703-30.57 25.038-23.839 37.718-53.18 33.587-73.329l-.06.058c-19.914-5.125-49.807 6.091-74.818 29.904"/>
        <path fill="#9575DB" d="M129.664 42.482c7.988-14.954 11.224-29.67 8.83-41.32l-.061.059c-11.497-2.957-26.327-.469-41.627 6.751l32.858 34.51z"/>
        <path fill="#1198FE" d="M31.607 81.681L52.898 104.044 46.71 107.032 28.319 87.716z"/>
        <path fill="#B7C3CB" d="M38.98 95.374l9.224 9.688c17.662-2.551 38.475-13.217 56.702-30.572 25.037-23.838 37.718-53.178 33.588-73.328l-.062.059-.448-.113L38.98 95.374z"/>
        <path fill="#8661C5" d="M129.664 42.482c7.988-14.954 11.224-29.67 8.83-41.32l-.061.059-.45-.113-25.025 23.829 16.706 17.545z"/>
        <path fill="#0078D2" d="M37.215 97.054L46.71 107.032 52.899 104.045 41.951 92.545zM90.056 27.764c5.416-5.157 14.018-4.947 19.186.481 5.176 5.437 4.966 14.039-.45 19.195-5.427 5.168-14.03 4.958-19.207-.48-5.168-5.427-4.956-14.029.47-19.196"/>
        <path fill="#EFF7FD" d="M92.161 29.974c4.204-4.003 10.863-3.84 14.874.373 4.011 4.213 3.855 10.881-.348 14.883-4.215 4.014-10.882 3.842-14.894-.37-4.01-4.213-3.848-10.872.368-14.886"/>
        <path fill="#DBE3E9" d="M91.908 44.98c4.023 4.096 10.605 4.225 14.78.25 4.162-3.963 4.355-10.543.46-14.763L91.908 44.98z"/>
    </g>
</svg>
