<?xml version="1.0" encoding="UTF-8"?>
<svg width="101px" height="116px" viewBox="0 0 101 116" version="1.1" xmlns="http://www.w3.org/2000/svg" xmlns:xlink="http://www.w3.org/1999/xlink">
    <title>Group 29</title>
    <g id="Desktop" stroke="none" stroke-width="1" fill="none" fill-rule="evenodd">
        <g id="Offering" transform="translate(-670.000000, -799.000000)" fill-rule="nonzero">
            <g id="Group-29" transform="translate(670.000000, 799.000000)">
                <g id="chess-(1)">
                    <polygon id="Path" fill="#8661C4" points="78.4571211 20.4295598 76.9605179 20.4295598 75.4639146 20.4295598 59.0862703 28.618382 67.2750925 44.9960264 76.9605179 44.9960264 86.6459433 44.9960264 94.8347654 28.618382"></polygon>
                    <polygon id="Path" fill="#3B2F58" points="94.8347654 28.618382 78.4571211 20.4295598 76.9605179 20.4295598 76.9605179 44.9960264 86.6459433 44.9960264"></polygon>
                    <polygon id="Path" fill="#0688EA" points="26.7688758 6.69221894 26.7688758 0 23.4227663 0 20.0766568 0 20.0766568 6.69221894 13.3844379 6.69221894 13.3844379 13.3844379 20.0766568 13.3844379 20.0766568 23.4227663 23.4227663 23.4227663 26.7688758 23.4227663 26.7688758 13.3844379 33.4610947 13.3844379 33.4610947 6.69221894"></polygon>
                    <g id="Group" transform="translate(5.130701, 0.000000)">
                        <polygon id="Path" fill="#006EC1" points="21.6381746 13.3844379 28.3303935 13.3844379 28.3303935 6.69221894 21.6381746 6.69221894 21.6381746 0 18.2920651 0 18.2920651 23.4227663 21.6381746 23.4227663"></polygon>
                        <path d="M8.10985399,43.9045255 L18.2920651,43.9045255 L28.4742762,43.9045255 C29.0002846,39.6043286 30.9773892,35.5457209 34.0424255,32.4806846 L36.4081249,30.1149852 L26.3697965,20.0766568 L18.2920651,20.0766568 L10.2143338,20.0766568 L0.176005358,30.1149852 L2.54170475,32.4806846 C5.60696411,35.545944 7.58384558,39.6043286 8.10985399,43.9045255 L8.10985399,43.9045255 Z" id="Path" fill="#0078D2"></path>
                        <path d="M28.3303935,56.883861 L28.3303935,50.1916421 L18.2920651,50.1916421 L8.2537367,50.1916421 L8.2537367,56.883861 C8.2537367,64.2754168 6.68530365,70.2299302 5.02518721,76.3013343 C3.32290978,82.5295594 1.56151775,89.1932249 1.56151775,97.4833226 L1.56151775,104.175542 L18.2920651,104.175542 L35.0226125,104.175542 L35.0226125,97.4833226 C35.0226125,89.1932249 33.2612204,82.5295594 31.558943,76.3013343 C29.8988266,70.2299302 28.3303935,64.2754168 28.3303935,56.883861 Z" id="Path" fill="#0078D2"></path>
                    </g>
                    <path d="M39.1729036,32.4806846 L41.5388261,30.1149852 L31.5004976,20.0766568 L23.4227663,20.0766568 L23.4227663,43.9045255 L33.6049774,43.9045255 C34.1309858,39.6043286 36.1078673,35.545944 39.1729036,32.4806846 L39.1729036,32.4806846 Z" id="Path" fill="#24395E"></path>
                    <path d="M39.9127441,95.8430738 C39.9127441,87.552976 38.1513521,80.8893106 36.4490747,74.6610855 C34.7889582,68.5896814 33.2205252,62.635168 33.2205252,55.2436122 L33.2205252,48.5513932 L23.1821968,48.5513932 L23.1821968,102.535293 L39.9127441,102.535293 L39.9127441,95.8430738 Z" id="Path" fill="#24395E"></path>
                    <g id="Group" transform="translate(0.000000, 40.153314)" fill="#0688EA">
                        <polygon id="Path" points="23.4227663 60.6761184 0 60.6761184 0 74.0605563 23.4227663 74.0605563 46.8455326 74.0605563 46.8455326 60.6761184"></polygon>
                        <polygon id="Path" points="40.1533137 13.3844379 40.1533137 0 23.4227663 0 6.69221894 0 6.69221894 13.3844379 23.4227663 13.3844379"></polygon>
                    </g>
                    <polygon id="Path" fill="#006EC1" points="23.4227663 100.829432 46.8455326 100.829432 46.8455326 114.21387 23.4227663 114.21387"></polygon>
                    <polygon id="Path" fill="#006EC1" points="23.4227663 40.1533137 40.1533137 40.1533137 40.1533137 53.5377516 23.4227663 53.5377516"></polygon>
                    <path d="M86.9988463,56.883861 L86.9988463,50.1916421 L76.9605179,50.1916421 L66.9221894,50.1916421 L66.9221894,56.883861 C66.9221894,64.2754168 65.3537564,70.2299302 63.6936399,76.3013343 C61.9913625,82.5295594 60.2299705,89.1932249 60.2299705,97.4833226 L60.2299705,104.175542 L76.9605179,104.175542 L93.6910652,104.175542 L93.6910652,97.4833226 C93.6910652,89.1932249 91.9296732,82.5295594 90.2273958,76.3013343 C88.5672793,70.2299302 86.9988463,64.2754168 86.9988463,56.883861 Z" id="Path" fill="#8661C4"></path>
                    <path d="M93.6910652,97.4833226 C93.6910652,89.1932249 91.9296732,82.5295594 90.2273958,76.3013343 C88.5672793,70.2299302 86.9988463,64.2754168 86.9988463,56.883861 L86.9988463,50.1916421 L76.9605179,50.1916421 L76.9605179,104.175542 L93.6910652,104.175542 L93.6910652,97.4833226 Z" id="Path" fill="#3B2F58"></path>
                    <polygon id="Path" fill="#AA85E7" points="76.9605179 100.829432 53.5377516 100.829432 53.5377516 114.21387 76.9605179 114.21387 100.383284 114.21387 100.383284 100.829432"></polygon>
                    <polygon id="Path" fill="#AA85E7" points="93.6910652 53.5377516 93.6910652 40.1533137 76.9605179 40.1533137 60.2299705 40.1533137 60.2299705 53.5377516 76.9605179 53.5377516"></polygon>
                    <polygon id="Path" fill="#6740AA" points="76.9605179 100.829432 100.383284 100.829432 100.383284 114.21387 76.9605179 114.21387"></polygon>
                    <polygon id="Path" fill="#6740AA" points="76.9605179 40.1533137 93.6910652 40.1533137 93.6910652 53.5377516 76.9605179 53.5377516"></polygon>
                    <circle id="Oval" fill="#AA85E7" cx="76.9605179" cy="16.7305474" r="10.0383284"></circle>
                    <path d="M86.9988463,16.7305474 C86.9988463,11.19519 82.4958752,6.69221894 76.9605179,6.69221894 L76.9605179,26.7688758 C82.4958752,26.7688758 86.9988463,22.2659047 86.9988463,16.7305474 Z" id="Path" fill="#6740AA"></path>
                </g>
            </g>
        </g>
    </g>
</svg>